<svg width="561" height="515" viewBox="0 0 561 515" fill="none" xmlns="http://www.w3.org/2000/svg">
<path d="M154.25 147.116C158.297 146.453 164.75 147.116 164.75 147.116L162.75 173.616L133.75 186.616C133.75 186.616 128.191 181.848 127.25 177.616C126.253 173.13 125.78 168.432 129.75 166.116C147.75 155.616 142.301 149.072 154.25 147.116Z" fill="#D08432" stroke="#D08432"/>
<path d="M132.75 140.116L129.75 142.116L132.75 146.116L135.75 144.116L132.75 140.116Z" fill="#B37E44"/>
<path d="M47.75 25.616L44.25 28.116L52.25 37.616L54.75 35.616L47.75 25.616Z" fill="#B37E44"/>
<path d="M132.75 140.116L129.75 142.116L132.75 146.116L135.75 144.116L132.75 140.116Z" stroke="#B37E44"/>
<path d="M47.75 25.616L44.25 28.116L52.25 37.616L54.75 35.616L47.75 25.616Z" stroke="#B37E44"/>
<path d="M138.25 159.616L133.75 153.616L142.75 147.616L146.25 151.616L138.25 159.616Z" fill="#D08432" stroke="#F7AE60"/>
<path d="M142.75 148.116L134.25 153.616L136.25 156.616C136.25 156.616 138.507 153.973 140.25 152.616C141.703 151.484 144.25 150.116 144.25 150.116L142.75 148.116Z" fill="#E7A256" stroke="#E7A256"/>
<path d="M138.25 159.616L133.75 153.616L142.75 147.616L146.25 151.616L138.25 159.616Z" stroke="#D08432"/>
<path d="M34.75 38.116L30.25 32.1161C30.25 32.1161 39.3899 22.244 46.25 17.1161C53.8155 11.4609 58.3191 8.19137 67.25 5.11605C74.3837 2.65958 78.7368 2.3055 86.25 1.61605C93.8334 0.920165 98.1928 0.678011 105.75 1.61605C113.552 2.58443 117.97 3.64805 125.25 6.61605C132.786 9.68841 136.724 12.2537 143.25 17.1161C149.675 21.9037 153.174 24.9163 158.25 31.1161C163.469 37.4901 165.876 41.6004 169.25 49.116C172.995 57.4601 174.523 62.5526 175.75 71.6161C176.876 79.9364 176.808 84.7868 175.75 93.1161C174.55 102.562 173.103 107.909 169.25 116.616C165.523 125.039 162.941 129.797 156.75 136.616C151.809 142.058 148.237 144.352 142.25 148.616C135.759 153.24 124.75 159.116 124.75 159.116L120.25 152.616C120.25 152.616 126.618 150.738 130.25 148.616C134.438 146.169 136.186 143.906 139.75 140.616C144.519 136.213 147.379 133.826 151.25 128.616C156.354 121.747 158.562 117.241 161.25 109.116C163.559 102.135 164.119 97.9418 164.75 90.6161C165.286 84.3907 165.443 80.8259 164.75 74.6161C163.879 66.8029 162.956 62.2941 159.75 55.116C156.702 48.2921 153.991 44.8937 149.25 39.116C144.871 33.7792 142.204 30.8483 136.75 26.6161C132.041 22.9616 129.117 21.2103 123.75 18.6161C117.967 15.8208 114.497 14.6069 108.25 13.116C99.8586 11.1137 94.8534 10.4787 86.25 11.116C79.4904 11.6168 75.7131 12.5735 69.25 14.616C60.5889 17.3533 55.5797 19.2511 48.25 24.6161C42.2336 29.0197 34.75 38.116 34.75 38.116Z" fill="#D08432" stroke="#D08432"/>
<circle cx="91.25" cy="87.366" r="66.75" fill="#7989E1" stroke="#7989E1"/>
<path d="M27.75 80.616L26.75 70.616L33.25 55.116L33.75 68.616L29.75 80.116L27.75 80.616Z" fill="#384797" stroke="#384797"/>
<path d="M26.75 87.116L24.75 87.616L25.75 97.116L28.25 108.616L31.25 104.616L26.75 96.116V87.116Z" fill="#384797" stroke="#384797"/>
<path d="M58.25 37.116L53.75 32.616L63.25 27.116L76.25 22.616L87.25 20.616L99.25 21.116L110.75 23.616L123.75 29.116L134.25 36.116L136.25 41.116C136.25 41.116 127.559 36.2436 121.75 37.116C117.946 37.6872 112.75 41.116 112.75 41.116C112.75 41.116 102.25 50.616 104.75 53.116C107.25 55.616 116.25 53.116 116.25 53.116C116.25 53.116 115.75 47.616 118.75 46.116C121.75 44.616 125.25 68.616 125.25 68.616H102.25L98.25 71.616H127.25L129.75 62.616L149.75 94.116L148.25 104.116L151.25 107.116L145.25 126.116C145.25 126.116 137.676 130.811 132.75 129.616C128.689 128.631 124.25 123.116 124.25 123.116L108.75 118.616C108.75 118.616 94.5071 132.607 83.25 132.116C75.8964 131.795 65.75 125.116 65.75 125.116L62.25 100.616L73.75 87.116L75.25 90.116L84.25 85.116L83.25 81.116L92.75 73.116L95.25 69.116L90.25 62.616L80.25 69.616L80.75 66.616L77.75 69.116L79.25 73.116L77.75 75.116L76.25 73.116L65.75 76.616L74.75 75.616L73.75 78.116L76.25 79.616H64.75L60.25 85.616L63.25 93.116L62.25 98.616L57.75 101.616L51.75 94.116L56.25 90.116L54.75 85.616H50.75L55.75 77.116L53.25 75.616L54.75 74.116L53.25 68.616L56.75 70.116L59.25 62.116V60.116C59.25 60.116 62.5022 55.9893 60.75 54.616C59.0318 53.2693 55.75 57.116 55.75 57.116H53.75L56.75 66.116C56.75 66.116 53.9701 65.7559 52.25 66.116C50.1132 66.5632 47.25 68.616 47.25 68.616L45.75 56.116L56.75 43.116L54.75 39.116L58.25 37.116Z" fill="#384797" stroke="#384797"/>
<path d="M44.25 73.116L43.75 75.116L48.25 78.616L49.25 84.116L52.75 79.116L51.25 78.116L47.25 75.616L44.25 73.116Z" fill="#384797" stroke="#384797"/>
<path d="M45.75 79.116C44.8773 79.1477 44.3542 79.4856 43.75 80.116C42.2096 81.7234 45.25 85.616 45.25 85.616L47.25 84.116C47.25 84.116 47.7873 79.0421 45.75 79.116Z" fill="#384797" stroke="#384797"/>
<circle cx="91.25" cy="87.366" r="66.75" stroke="#7989E1"/>
<path d="M447 39.9999C442.672 40.5728 437 44.9999 437 44.9999L385 140.5L395 166.5L461.5 44.9999C461.5 44.9999 452.938 39.214 447 39.9999Z" fill="#7989E1" stroke="#7989E1"/>
<path d="M447 39.9999C442.672 40.5728 437 44.9999 437 44.9999L385 140.5L395 166.5L461.5 44.9999C461.5 44.9999 452.938 39.214 447 39.9999Z" stroke="#7989E1"/>
<path d="M558.5 97.5C556.5 93.5 464.5 46.5 464.5 46.5L397.5 169L404.5 189L440.5 209L484 233C484 233 486 236.5 489.5 231.5C493 226.5 558.858 105.887 559.5 103C560.142 100.113 560.5 101.5 558.5 97.5Z" fill="#7989E1" stroke="#7989E1"/>
<path d="M440 211V209L481.5 231.5C481.5 231.5 490.5 231.5 488 233C485.5 234.5 482.5 234 482.5 234L440 211Z" fill="#5D6DC3" stroke="#5D6DC3"/>
<path d="M440 216.5V212L475 230L473.5 234.5L440 216.5Z" fill="#B4B8BB" stroke="#B4B8BB"/>
<path d="M438.5 58.5001C434.293 58.2328 428 61.0001 428 61.0001L427 64.5001C427 64.5001 433.558 61.19 438 61.5001C442.707 61.8288 449 66.5001 449 66.5001L450.5 64.0001C450.5 64.0001 443.645 58.8271 438.5 58.5001Z" fill="#FDF18B" stroke="#FDF18B"/>
<path d="M435.5 65.0182C431.293 64.7508 425 67.5182 425 67.5182L424 71.0182C424 71.0182 430.558 67.708 435 68.0182C439.707 68.3469 446 73.0182 446 73.0182L447.5 70.5182C447.5 70.5182 440.645 65.3452 435.5 65.0182Z" fill="#FDF18B" stroke="#FDF18B"/>
<path d="M393.981 139.582C389.828 138.862 383.273 140.935 383.273 140.935L381.901 144.307C381.901 144.307 388.778 141.723 393.161 142.51C397.805 143.345 403.557 148.667 403.557 148.667L405.318 146.344C405.318 146.344 399.061 140.462 393.981 139.582Z" fill="#FDF18B" stroke="#FDF18B"/>
<path d="M390.296 145.738C386.142 145.019 379.587 147.091 379.587 147.091L378.216 150.463C378.216 150.463 385.093 147.879 389.475 148.667C394.119 149.501 399.872 154.824 399.872 154.824L401.633 152.5C401.633 152.5 395.375 146.618 390.296 145.738Z" fill="#FDF18B" stroke="#FDF18B"/>
<path d="M464 47.5L461 45.5L395.5 165.5L397.5 169L464 47.5Z" fill="#4B5BB3" stroke="#4B5BB3"/>
<path d="M447 39.9999C442.672 40.5728 437 44.9999 437 44.9999L385 140.5L395 166.5L461 44.9999C461 44.9999 452.938 39.214 447 39.9999Z" stroke="#7989E1"/>
<path d="M443.185 127.306C442.521 127.809 441.879 127.866 441.259 127.479L435.759 124.051C435.584 123.942 435.466 123.787 435.402 123.586C435.371 123.378 435.409 123.186 435.518 123.012L435.656 122.855L453.591 108.216C453.826 108.012 454.11 107.88 454.445 107.819C454.779 107.758 455.13 107.842 455.499 108.072L463.588 113.115C463.957 113.345 464.187 113.623 464.28 113.95C464.372 114.277 464.379 114.591 464.299 114.892L459.051 137.44L458.971 137.633C458.862 137.807 458.698 137.92 458.477 137.971C458.288 138.015 458.106 137.983 457.932 137.874L452.432 134.445C451.811 134.058 451.581 133.456 451.74 132.64L452.282 130.149L445.182 125.723L443.185 127.306ZM456.042 116.21L450.203 120.974L454.335 123.55L456.042 116.21ZM486.423 140.887C487.035 141.592 487.364 142.511 487.411 143.645C487.471 144.759 487.186 145.821 486.557 146.83C485.215 148.983 483.513 150.158 481.451 150.354C479.401 150.531 477.038 149.785 474.361 148.116L462.372 140.642C462.159 140.509 462.023 140.317 461.965 140.065C461.906 139.813 461.944 139.58 462.077 139.367L473.795 120.569C473.928 120.356 474.121 120.22 474.373 120.162C474.624 120.103 474.857 120.14 475.071 120.273L486.768 127.566C489.523 129.283 491.235 131.051 491.906 132.87C492.609 134.682 492.331 136.596 491.073 138.614L491.019 138.701C490.438 139.632 489.69 140.271 488.775 140.616C487.859 140.961 487.075 141.051 486.423 140.887ZM483.024 133.96C483.242 133.611 483.323 133.243 483.267 132.858C483.23 132.485 483.017 132.178 482.629 131.936L478.73 129.505L477.08 132.153L480.979 134.584C481.367 134.826 481.742 134.871 482.106 134.721C482.5 134.563 482.807 134.309 483.024 133.96ZM476.492 142.494C476.938 142.772 477.358 142.832 477.753 142.675C478.179 142.509 478.507 142.242 478.737 141.874L478.755 141.845C478.985 141.476 479.058 141.077 478.976 140.649C478.912 140.232 478.677 139.897 478.269 139.643L474.05 137.012L472.272 139.864L476.492 142.494ZM498.423 152.207C497.927 153.002 497.808 153.776 498.066 154.53C498.343 155.295 498.937 155.962 499.849 156.53C500.664 157.038 501.35 157.277 501.907 157.248C502.464 157.218 503.048 157.016 503.658 156.642C504.225 156.295 504.722 156.255 505.148 156.521L511.434 160.439C511.608 160.548 511.711 160.706 511.743 160.915C511.806 161.116 511.783 161.304 511.675 161.478C510.937 162.661 509.814 163.577 508.305 164.226C506.808 164.855 505.009 165.04 502.908 164.781C500.838 164.515 498.64 163.656 496.312 162.204C494.236 160.91 492.577 159.445 491.334 157.809C490.123 156.165 489.448 154.397 489.308 152.504C489.179 150.593 489.726 148.657 490.947 146.698L493.088 143.264C494.309 141.305 495.8 139.972 497.561 139.265C499.334 138.538 501.219 138.366 503.216 138.749C505.245 139.125 507.297 139.96 509.373 141.254C511.7 142.705 513.434 144.311 514.572 146.071C515.742 147.824 516.368 149.521 516.45 151.161C516.544 152.782 516.222 154.184 515.484 155.368C515.375 155.542 515.211 155.655 514.99 155.706C514.801 155.75 514.619 155.717 514.445 155.609L508.16 151.69C507.733 151.424 507.551 150.96 507.613 150.299C507.68 149.586 507.604 148.973 507.385 148.46C507.167 147.947 506.65 147.436 505.835 146.928C504.924 146.36 504.063 146.119 503.254 146.208C502.464 146.308 501.821 146.756 501.325 147.551L498.423 152.207Z" fill="#FDF18B"/>
<g filter="url(#filter0_d_6_526)">
<path d="M234 115C213.778 121.357 196.92 107.731 180 120.5C162.924 133.387 160 171.5 160 171.5C160 171.5 125.189 184.572 117.5 204C108.181 227.547 139.287 240.83 136.5 266C134.441 284.603 113.659 291.682 117.5 310C121.813 330.566 147.356 326.217 160 343C172.655 359.797 163.175 380.383 180 393C196.944 405.706 213.691 391.993 234 398C256.206 404.568 263.006 429.244 286 426.5C306.833 424.014 308.135 399.75 328 393C346.858 386.592 362.542 404.216 379 393C396.15 381.313 384.807 359.794 397 343C409.437 325.871 433.589 330.174 440 310C446.215 290.445 425.994 280.012 425.5 259.5C424.961 237.105 447.783 225.006 440 204C432.687 184.262 409.974 188.076 397 171.5C382.406 152.854 395.43 126.971 375 115C355.705 103.694 338.44 129.574 318 120.5C300.808 112.868 304.233 89.1229 286 84.5C263.18 78.714 256.459 107.94 234 115Z" fill="#FFC734"/>
<path d="M234 115C213.778 121.357 196.92 107.731 180 120.5C162.924 133.387 160 171.5 160 171.5C160 171.5 125.189 184.572 117.5 204C108.181 227.547 139.287 240.83 136.5 266C134.441 284.603 113.659 291.682 117.5 310C121.813 330.566 147.356 326.217 160 343C172.655 359.797 163.175 380.383 180 393C196.944 405.706 213.691 391.993 234 398C256.206 404.568 263.006 429.244 286 426.5C306.833 424.014 308.135 399.75 328 393C346.858 386.592 362.542 404.216 379 393C396.15 381.313 384.807 359.794 397 343C409.437 325.871 433.589 330.174 440 310C446.215 290.445 425.994 280.012 425.5 259.5C424.961 237.105 447.783 225.006 440 204C432.687 184.262 409.974 188.076 397 171.5C382.406 152.854 395.43 126.971 375 115C355.705 103.694 338.44 129.574 318 120.5C300.808 112.868 304.233 89.1229 286 84.5C263.18 78.714 256.459 107.94 234 115Z" stroke="#FFC734"/>
</g>
<path d="M366.664 249.275V217.397" stroke="white" stroke-width="2.95792" stroke-linecap="round" stroke-linejoin="round"/>
<path d="M395 248.389L395 210.312" stroke="white" stroke-width="2.95792" stroke-linecap="round" stroke-linejoin="round"/>
<path d="M395 248.389L365.779 210.312" stroke="white" stroke-width="2.95792" stroke-linecap="round" stroke-linejoin="round"/>
<path d="M365.778 210.312H342.755" stroke="white" stroke-width="2.95792" stroke-linecap="round" stroke-linejoin="round"/>
<path d="M342.755 249.274V210.312" stroke="white" stroke-width="2.95792" stroke-linecap="round" stroke-linejoin="round"/>
<path d="M229.853 210.709H207.53C202.83 210.709 199.305 214.134 199.305 218.701C199.305 223.269 202.83 226.694 207.53 226.694H227.503H233.378C238.077 226.694 241.602 230.12 241.602 234.687C241.602 239.254 238.077 242.68 233.378 242.68H201.655" stroke="#FFEDE5" stroke-width="2.95792" stroke-linecap="round" stroke-linejoin="round"/>
<path d="M207.53 248.389L201.655 242.68L207.53 236.971" stroke="#FFEDE5" stroke-width="2.95792" stroke-linecap="round" stroke-linejoin="round"/>
<path d="M235.935 205C232.69 205 230.06 207.556 230.06 210.709C230.06 213.862 232.69 216.418 235.935 216.418C239.179 216.418 241.809 213.862 241.809 210.709C241.809 207.556 239.179 205 235.935 205Z" stroke="#FFEDE5" stroke-width="2.95792"/>
<mask id="mask0_6_526" style="mask-type:luminance" maskUnits="userSpaceOnUse" x="220" y="204" width="46" height="46">
<path d="M252.381 211.478H230.419C225.796 211.478 222.328 214.833 222.328 219.307C222.328 223.781 225.796 227.137 230.419 227.137H250.069H255.849C260.472 227.137 263.94 230.492 263.94 234.966C263.94 239.441 260.472 242.796 255.849 242.796H224.64" stroke="#ED8D5D" stroke-width="2.95792" stroke-linecap="round" stroke-linejoin="round"/>
<path d="M230.419 248.389L224.64 242.796L230.419 237.204" stroke="#ED8D5D" stroke-width="2.95792" stroke-linecap="round" stroke-linejoin="round"/>
<path d="M258.364 205.885C255.172 205.885 252.585 208.389 252.585 211.477C252.585 214.566 255.172 217.07 258.364 217.07C261.556 217.07 264.144 214.566 264.144 211.477C264.144 208.389 261.556 205.885 258.364 205.885Z" fill="white" stroke="#ED8D5D" stroke-width="2.95792"/>
</mask>
<g mask="url(#mask0_6_526)">
<path d="M215.393 200.292H270.875V253.981H215.393V200.292Z" fill="#FFEDE5"/>
</g>
<path d="M163 248.389L179.824 208.542" stroke="white" stroke-width="2.95792" stroke-linecap="round" stroke-linejoin="round"/>
<path d="M196.649 248.389L179.824 208.542" stroke="white" stroke-width="2.95792" stroke-linecap="round" stroke-linejoin="round"/>
<path d="M335.672 210.312H271.916" stroke="white" stroke-width="2.95792" stroke-linecap="round" stroke-linejoin="round"/>
<path d="M294.939 228.908H271.916" stroke="white" stroke-width="2.95792" stroke-linecap="round" stroke-linejoin="round"/>
<path d="M319.733 249.274V215.625" stroke="white" stroke-width="2.95792" stroke-linecap="round" stroke-linejoin="round"/>
<path d="M294.939 249.274H271.916" stroke="white" stroke-width="2.95792" stroke-linecap="round" stroke-linejoin="round"/>
<path d="M186.909 236.877H173.626" stroke="white" stroke-width="2.95792" stroke-linecap="round" stroke-linejoin="round"/>
<path d="M200.039 279.736C200.571 279.82 201.054 280.037 201.488 280.387C201.936 280.737 202.286 281.171 202.538 281.689C202.804 282.207 202.937 282.76 202.937 283.348C202.937 284.09 202.748 284.762 202.37 285.364C201.992 285.952 201.439 286.421 200.711 286.771C199.997 287.107 199.15 287.275 198.17 287.275H192.71V272.638H197.96C198.954 272.638 199.801 272.806 200.501 273.142C201.201 273.464 201.726 273.905 202.076 274.465C202.426 275.025 202.601 275.655 202.601 276.355C202.601 277.223 202.363 277.944 201.887 278.518C201.425 279.078 200.809 279.484 200.039 279.736ZM194.621 278.959H197.834C198.73 278.959 199.423 278.749 199.913 278.329C200.403 277.909 200.648 277.328 200.648 276.586C200.648 275.844 200.403 275.263 199.913 274.843C199.423 274.423 198.716 274.213 197.792 274.213H194.621V278.959ZM198.002 285.7C198.954 285.7 199.696 285.476 200.228 285.028C200.76 284.58 201.026 283.957 201.026 283.159C201.026 282.347 200.746 281.71 200.186 281.248C199.626 280.772 198.877 280.534 197.939 280.534H194.621V285.7H198.002ZM210.608 287.464C209.53 287.464 208.55 287.219 207.668 286.729C206.8 286.239 206.114 285.546 205.61 284.65C205.12 283.74 204.875 282.69 204.875 281.5C204.875 280.324 205.127 279.288 205.631 278.392C206.149 277.482 206.849 276.789 207.731 276.313C208.613 275.823 209.6 275.578 210.692 275.578C211.784 275.578 212.771 275.823 213.653 276.313C214.535 276.789 215.228 277.475 215.732 278.371C216.25 279.267 216.509 280.31 216.509 281.5C216.509 282.69 216.243 283.74 215.711 284.65C215.193 285.546 214.486 286.239 213.59 286.729C212.694 287.219 211.7 287.464 210.608 287.464ZM210.608 285.784C211.294 285.784 211.938 285.623 212.54 285.301C213.142 284.979 213.625 284.496 213.989 283.852C214.367 283.208 214.556 282.424 214.556 281.5C214.556 280.576 214.374 279.792 214.01 279.148C213.646 278.504 213.17 278.028 212.582 277.72C211.994 277.398 211.357 277.237 210.671 277.237C209.971 277.237 209.327 277.398 208.739 277.72C208.165 278.028 207.703 278.504 207.353 279.148C207.003 279.792 206.828 280.576 206.828 281.5C206.828 282.438 206.996 283.229 207.332 283.873C207.682 284.517 208.144 285 208.718 285.322C209.292 285.63 209.922 285.784 210.608 285.784ZM220.933 277.636C221.269 276.978 221.745 276.467 222.361 276.103C222.991 275.739 223.754 275.557 224.65 275.557V277.531H224.146C222.004 277.531 220.933 278.693 220.933 281.017V287.275H219.022V275.767H220.933V277.636ZM228.767 277.636C229.103 276.978 229.579 276.467 230.195 276.103C230.825 275.739 231.588 275.557 232.484 275.557V277.531H231.98C229.838 277.531 228.767 278.693 228.767 281.017V287.275H226.856V275.767H228.767V277.636ZM239.709 287.464C238.631 287.464 237.651 287.219 236.769 286.729C235.901 286.239 235.215 285.546 234.711 284.65C234.221 283.74 233.976 282.69 233.976 281.5C233.976 280.324 234.228 279.288 234.732 278.392C235.25 277.482 235.95 276.789 236.832 276.313C237.714 275.823 238.701 275.578 239.793 275.578C240.885 275.578 241.872 275.823 242.754 276.313C243.636 276.789 244.329 277.475 244.833 278.371C245.351 279.267 245.61 280.31 245.61 281.5C245.61 282.69 245.344 283.74 244.812 284.65C244.294 285.546 243.587 286.239 242.691 286.729C241.795 287.219 240.801 287.464 239.709 287.464ZM239.709 285.784C240.395 285.784 241.039 285.623 241.641 285.301C242.243 284.979 242.726 284.496 243.09 283.852C243.468 283.208 243.657 282.424 243.657 281.5C243.657 280.576 243.475 279.792 243.111 279.148C242.747 278.504 242.271 278.028 241.683 277.72C241.095 277.398 240.458 277.237 239.772 277.237C239.072 277.237 238.428 277.398 237.84 277.72C237.266 278.028 236.804 278.504 236.454 279.148C236.104 279.792 235.929 280.576 235.929 281.5C235.929 282.438 236.097 283.229 236.433 283.873C236.783 284.517 237.245 285 237.819 285.322C238.393 285.63 239.023 285.784 239.709 285.784ZM263.452 275.767L259.861 287.275H257.887L255.115 278.14L252.343 287.275H250.369L246.757 275.767H248.71L251.356 285.427L254.212 275.767H256.165L258.958 285.448L261.562 275.767H263.452ZM271.935 273.898C271.571 273.898 271.263 273.772 271.011 273.52C270.759 273.268 270.633 272.96 270.633 272.596C270.633 272.232 270.759 271.924 271.011 271.672C271.263 271.42 271.571 271.294 271.935 271.294C272.285 271.294 272.579 271.42 272.817 271.672C273.069 271.924 273.195 272.232 273.195 272.596C273.195 272.96 273.069 273.268 272.817 273.52C272.579 273.772 272.285 273.898 271.935 273.898ZM272.859 275.767V287.275H270.948V275.767H272.859ZM281.723 275.557C283.123 275.557 284.257 275.984 285.125 276.838C285.993 277.678 286.427 278.896 286.427 280.492V287.275H284.537V280.765C284.537 279.617 284.25 278.742 283.676 278.14C283.102 277.524 282.318 277.216 281.324 277.216C280.316 277.216 279.511 277.531 278.909 278.161C278.321 278.791 278.027 279.708 278.027 280.912V287.275H276.116V275.767H278.027V277.405C278.405 276.817 278.916 276.362 279.56 276.04C280.218 275.718 280.939 275.557 281.723 275.557ZM293.832 285.511L297.402 275.767H299.439L294.924 287.275H292.698L288.183 275.767H290.241L293.832 285.511ZM311.82 281.08C311.82 281.444 311.799 281.829 311.757 282.235H302.559C302.629 283.369 303.014 284.258 303.714 284.902C304.428 285.532 305.289 285.847 306.297 285.847C307.123 285.847 307.809 285.658 308.355 285.28C308.915 284.888 309.307 284.37 309.531 283.726H311.589C311.281 284.832 310.665 285.735 309.741 286.435C308.817 287.121 307.669 287.464 306.297 287.464C305.205 287.464 304.225 287.219 303.357 286.729C302.503 286.239 301.831 285.546 301.341 284.65C300.851 283.74 300.606 282.69 300.606 281.5C300.606 280.31 300.844 279.267 301.32 278.371C301.796 277.475 302.461 276.789 303.315 276.313C304.183 275.823 305.177 275.578 306.297 275.578C307.389 275.578 308.355 275.816 309.195 276.292C310.035 276.768 310.679 277.426 311.127 278.266C311.589 279.092 311.82 280.03 311.82 281.08ZM309.846 280.681C309.846 279.953 309.685 279.33 309.363 278.812C309.041 278.28 308.6 277.881 308.04 277.615C307.494 277.335 306.885 277.195 306.213 277.195C305.247 277.195 304.421 277.503 303.735 278.119C303.063 278.735 302.678 279.589 302.58 280.681H309.846ZM319.949 275.557C321.349 275.557 322.483 275.984 323.351 276.838C324.219 277.678 324.653 278.896 324.653 280.492V287.275H322.763V280.765C322.763 279.617 322.476 278.742 321.902 278.14C321.328 277.524 320.544 277.216 319.55 277.216C318.542 277.216 317.737 277.531 317.135 278.161C316.547 278.791 316.253 279.708 316.253 280.912V287.275H314.342V275.767H316.253V277.405C316.631 276.817 317.142 276.362 317.786 276.04C318.444 275.718 319.165 275.557 319.949 275.557ZM330.106 277.342V284.125C330.106 284.685 330.225 285.084 330.463 285.322C330.701 285.546 331.114 285.658 331.702 285.658H333.109V287.275H331.387C330.323 287.275 329.525 287.03 328.993 286.54C328.461 286.05 328.195 285.245 328.195 284.125V277.342H326.704V275.767H328.195V272.869H330.106V275.767H333.109V277.342H330.106ZM340.443 287.464C339.365 287.464 338.385 287.219 337.503 286.729C336.635 286.239 335.949 285.546 335.445 284.65C334.955 283.74 334.71 282.69 334.71 281.5C334.71 280.324 334.962 279.288 335.466 278.392C335.984 277.482 336.684 276.789 337.566 276.313C338.448 275.823 339.435 275.578 340.527 275.578C341.619 275.578 342.606 275.823 343.488 276.313C344.37 276.789 345.063 277.475 345.567 278.371C346.085 279.267 346.344 280.31 346.344 281.5C346.344 282.69 346.078 283.74 345.546 284.65C345.028 285.546 344.321 286.239 343.425 286.729C342.529 287.219 341.535 287.464 340.443 287.464ZM340.443 285.784C341.129 285.784 341.773 285.623 342.375 285.301C342.977 284.979 343.46 284.496 343.824 283.852C344.202 283.208 344.391 282.424 344.391 281.5C344.391 280.576 344.209 279.792 343.845 279.148C343.481 278.504 343.005 278.028 342.417 277.72C341.829 277.398 341.192 277.237 340.506 277.237C339.806 277.237 339.162 277.398 338.574 277.72C338 278.028 337.538 278.504 337.188 279.148C336.838 279.792 336.663 280.576 336.663 281.5C336.663 282.438 336.831 283.229 337.167 283.873C337.517 284.517 337.979 285 338.553 285.322C339.127 285.63 339.757 285.784 340.443 285.784ZM350.768 277.636C351.104 276.978 351.58 276.467 352.196 276.103C352.826 275.739 353.589 275.557 354.485 275.557V277.531H353.981C351.839 277.531 350.768 278.693 350.768 281.017V287.275H348.857V275.767H350.768V277.636ZM366.603 275.767L359.673 292.693H357.699L359.967 287.149L355.326 275.767H357.447L361.059 285.091L364.629 275.767H366.603ZM219.404 305.898C219.04 305.898 218.732 305.772 218.48 305.52C218.228 305.268 218.102 304.96 218.102 304.596C218.102 304.232 218.228 303.924 218.48 303.672C218.732 303.42 219.04 303.294 219.404 303.294C219.754 303.294 220.048 303.42 220.286 303.672C220.538 303.924 220.664 304.232 220.664 304.596C220.664 304.96 220.538 305.268 220.286 305.52C220.048 305.772 219.754 305.898 219.404 305.898ZM220.328 307.767V319.275H218.417V307.767H220.328ZM225.916 309.342V316.125C225.916 316.685 226.035 317.084 226.273 317.322C226.511 317.546 226.924 317.658 227.512 317.658H228.919V319.275H227.197C226.133 319.275 225.335 319.03 224.803 318.54C224.271 318.05 224.005 317.245 224.005 316.125V309.342H222.514V307.767H224.005V304.869H225.916V307.767H228.919V309.342H225.916ZM241.734 313.08C241.734 313.444 241.713 313.829 241.671 314.235H232.473C232.543 315.369 232.928 316.258 233.628 316.902C234.342 317.532 235.203 317.847 236.211 317.847C237.037 317.847 237.723 317.658 238.269 317.28C238.829 316.888 239.221 316.37 239.445 315.726H241.503C241.195 316.832 240.579 317.735 239.655 318.435C238.731 319.121 237.583 319.464 236.211 319.464C235.119 319.464 234.139 319.219 233.271 318.729C232.417 318.239 231.745 317.546 231.255 316.65C230.765 315.74 230.52 314.69 230.52 313.5C230.52 312.31 230.758 311.267 231.234 310.371C231.71 309.475 232.375 308.789 233.229 308.313C234.097 307.823 235.091 307.578 236.211 307.578C237.303 307.578 238.269 307.816 239.109 308.292C239.949 308.768 240.593 309.426 241.041 310.266C241.503 311.092 241.734 312.03 241.734 313.08ZM239.76 312.681C239.76 311.953 239.599 311.33 239.277 310.812C238.955 310.28 238.514 309.881 237.954 309.615C237.408 309.335 236.799 309.195 236.127 309.195C235.161 309.195 234.335 309.503 233.649 310.119C232.977 310.735 232.592 311.589 232.494 312.681H239.76ZM258.096 307.557C258.992 307.557 259.79 307.746 260.49 308.124C261.19 308.488 261.743 309.041 262.149 309.783C262.555 310.525 262.758 311.428 262.758 312.492V319.275H260.868V312.765C260.868 311.617 260.581 310.742 260.007 310.14C259.447 309.524 258.684 309.216 257.718 309.216C256.724 309.216 255.933 309.538 255.345 310.182C254.757 310.812 254.463 311.729 254.463 312.933V319.275H252.573V312.765C252.573 311.617 252.286 310.742 251.712 310.14C251.152 309.524 250.389 309.216 249.423 309.216C248.429 309.216 247.638 309.538 247.05 310.182C246.462 310.812 246.168 311.729 246.168 312.933V319.275H244.257V307.767H246.168V309.426C246.546 308.824 247.05 308.362 247.68 308.04C248.324 307.718 249.031 307.557 249.801 307.557C250.767 307.557 251.621 307.774 252.363 308.208C253.105 308.642 253.658 309.279 254.022 310.119C254.344 309.307 254.876 308.677 255.618 308.229C256.36 307.781 257.186 307.557 258.096 307.557ZM269.966 319.464C269.084 319.464 268.293 319.317 267.593 319.023C266.893 318.715 266.34 318.295 265.934 317.763C265.528 317.217 265.304 316.594 265.262 315.894H267.236C267.292 316.468 267.558 316.937 268.034 317.301C268.524 317.665 269.161 317.847 269.945 317.847C270.673 317.847 271.247 317.686 271.667 317.364C272.087 317.042 272.297 316.636 272.297 316.146C272.297 315.642 272.073 315.271 271.625 315.033C271.177 314.781 270.484 314.536 269.546 314.298C268.692 314.074 267.992 313.85 267.446 313.626C266.914 313.388 266.452 313.045 266.06 312.597C265.682 312.135 265.493 311.533 265.493 310.791C265.493 310.203 265.668 309.664 266.018 309.174C266.368 308.684 266.865 308.299 267.509 308.019C268.153 307.725 268.888 307.578 269.714 307.578C270.988 307.578 272.017 307.9 272.801 308.544C273.585 309.188 274.005 310.07 274.061 311.19H272.15C272.108 310.588 271.863 310.105 271.415 309.741C270.981 309.377 270.393 309.195 269.651 309.195C268.965 309.195 268.419 309.342 268.013 309.636C267.607 309.93 267.404 310.315 267.404 310.791C267.404 311.169 267.523 311.484 267.761 311.736C268.013 311.974 268.321 312.17 268.685 312.324C269.063 312.464 269.581 312.625 270.239 312.807C271.065 313.031 271.737 313.255 272.255 313.479C272.773 313.689 273.214 314.011 273.578 314.445C273.956 314.879 274.152 315.446 274.166 316.146C274.166 316.776 273.991 317.343 273.641 317.847C273.291 318.351 272.794 318.75 272.15 319.044C271.52 319.324 270.792 319.464 269.966 319.464ZM292.963 313.08C292.963 313.444 292.942 313.829 292.9 314.235H283.702C283.772 315.369 284.157 316.258 284.857 316.902C285.571 317.532 286.432 317.847 287.44 317.847C288.266 317.847 288.952 317.658 289.498 317.28C290.058 316.888 290.45 316.37 290.674 315.726H292.732C292.424 316.832 291.808 317.735 290.884 318.435C289.96 319.121 288.812 319.464 287.44 319.464C286.348 319.464 285.368 319.219 284.5 318.729C283.646 318.239 282.974 317.546 282.484 316.65C281.994 315.74 281.749 314.69 281.749 313.5C281.749 312.31 281.987 311.267 282.463 310.371C282.939 309.475 283.604 308.789 284.458 308.313C285.326 307.823 286.32 307.578 287.44 307.578C288.532 307.578 289.498 307.816 290.338 308.292C291.178 308.768 291.822 309.426 292.27 310.266C292.732 311.092 292.963 312.03 292.963 313.08ZM290.989 312.681C290.989 311.953 290.828 311.33 290.506 310.812C290.184 310.28 289.743 309.881 289.183 309.615C288.637 309.335 288.028 309.195 287.356 309.195C286.39 309.195 285.564 309.503 284.878 310.119C284.206 310.735 283.821 311.589 283.723 312.681H290.989ZM294.771 313.479C294.771 312.303 295.009 311.274 295.485 310.392C295.961 309.496 296.612 308.803 297.438 308.313C298.278 307.823 299.209 307.578 300.231 307.578C301.239 307.578 302.114 307.795 302.856 308.229C303.598 308.663 304.151 309.209 304.515 309.867V307.767H306.447V319.275H304.515V317.133C304.137 317.805 303.57 318.365 302.814 318.813C302.072 319.247 301.204 319.464 300.21 319.464C299.188 319.464 298.264 319.212 297.438 318.708C296.612 318.204 295.961 317.497 295.485 316.587C295.009 315.677 294.771 314.641 294.771 313.479ZM304.515 313.5C304.515 312.632 304.34 311.876 303.99 311.232C303.64 310.588 303.164 310.098 302.562 309.762C301.974 309.412 301.323 309.237 300.609 309.237C299.895 309.237 299.244 309.405 298.656 309.741C298.068 310.077 297.599 310.567 297.249 311.211C296.899 311.855 296.724 312.611 296.724 313.479C296.724 314.361 296.899 315.131 297.249 315.789C297.599 316.433 298.068 316.93 298.656 317.28C299.244 317.616 299.895 317.784 300.609 317.784C301.323 317.784 301.974 317.616 302.562 317.28C303.164 316.93 303.64 316.433 303.99 315.789C304.34 315.131 304.515 314.368 304.515 313.5ZM313.751 319.464C312.869 319.464 312.078 319.317 311.378 319.023C310.678 318.715 310.125 318.295 309.719 317.763C309.313 317.217 309.089 316.594 309.047 315.894H311.021C311.077 316.468 311.343 316.937 311.819 317.301C312.309 317.665 312.946 317.847 313.73 317.847C314.458 317.847 315.032 317.686 315.452 317.364C315.872 317.042 316.082 316.636 316.082 316.146C316.082 315.642 315.858 315.271 315.41 315.033C314.962 314.781 314.269 314.536 313.331 314.298C312.477 314.074 311.777 313.85 311.231 313.626C310.699 313.388 310.237 313.045 309.845 312.597C309.467 312.135 309.278 311.533 309.278 310.791C309.278 310.203 309.453 309.664 309.803 309.174C310.153 308.684 310.65 308.299 311.294 308.019C311.938 307.725 312.673 307.578 313.499 307.578C314.773 307.578 315.802 307.9 316.586 308.544C317.37 309.188 317.79 310.07 317.846 311.19H315.935C315.893 310.588 315.648 310.105 315.2 309.741C314.766 309.377 314.178 309.195 313.436 309.195C312.75 309.195 312.204 309.342 311.798 309.636C311.392 309.93 311.189 310.315 311.189 310.791C311.189 311.169 311.308 311.484 311.546 311.736C311.798 311.974 312.106 312.17 312.47 312.324C312.848 312.464 313.366 312.625 314.024 312.807C314.85 313.031 315.522 313.255 316.04 313.479C316.558 313.689 316.999 314.011 317.363 314.445C317.741 314.879 317.937 315.446 317.951 316.146C317.951 316.776 317.776 317.343 317.426 317.847C317.076 318.351 316.579 318.75 315.935 319.044C315.305 319.324 314.577 319.464 313.751 319.464ZM321.635 305.898C321.271 305.898 320.963 305.772 320.711 305.52C320.459 305.268 320.333 304.96 320.333 304.596C320.333 304.232 320.459 303.924 320.711 303.672C320.963 303.42 321.271 303.294 321.635 303.294C321.985 303.294 322.279 303.42 322.517 303.672C322.769 303.924 322.895 304.232 322.895 304.596C322.895 304.96 322.769 305.268 322.517 305.52C322.279 305.772 321.985 305.898 321.635 305.898ZM322.559 307.767V319.275H320.648V307.767H322.559ZM327.727 303.735V319.275H325.816V303.735H327.727ZM340.896 307.767L333.966 324.693H331.992L334.26 319.149L329.619 307.767H331.74L335.352 317.091L338.922 307.767H340.896Z" fill="white"/>
<path d="M89.4355 239.818L244.975 453.907L94.9742 328.311L89.4355 239.818Z" fill="#ACB9FF" stroke="#ACB9FF" stroke-width="1.18039"/>
<path d="M31.6165 346.104L94.2255 328.681L244.975 453.907L31.6165 346.104Z" fill="#97A2E1" stroke="#97A2E1" stroke-width="1.18039"/>
<path d="M31.0575 345.915L52.9622 408.173L243.857 453.528L31.0575 345.915Z" fill="#ACB9FF" stroke="#ACB9FF" stroke-width="1.18039"/>
<path d="M52.9624 408.173L244.416 453.718L5.58963 439.482L52.9624 408.173Z" fill="#97A2E1" stroke="#97A2E1" stroke-width="1.18039"/>
<path d="M243.035 468.828L233.407 453.103L78.1686 444.131L117.053 469.144L243.035 468.828Z" fill="#7989E1" stroke="#7989E1" stroke-width="1.18039"/>
<path d="M401.998 333.888C397.704 333.802 392.34 333.216 390.998 333.888C390 334.388 390.498 337.888 390.498 338.388C390.498 339.005 391.915 338.276 391.998 338.888C394.999 360.888 388.999 437.388 391.498 444.888C392.42 447.654 397.499 449.888 400.999 449.888C404.791 449.888 410.962 447.641 411.498 443.888C412.999 433.388 410.999 361.888 412.498 338.888C412.537 338.303 413.584 338.802 413.998 338.388C414.499 337.888 414.973 335.85 413.998 334.388C412.999 332.888 406.688 333.981 401.998 333.888Z" fill="#E6E7E9" stroke="#E6E7E9"/>
<path d="M402 372.5L393.5 371L392 446L397.5 449.5L402 450.5L408 449L412 445V371L402 372.5Z" fill="#7989E1" stroke="#7989E1"/>
<path d="M401.998 333.888C397.704 333.802 392.34 333.216 390.998 333.888C390 334.388 390.498 337.888 390.498 338.388C390.498 339.005 391.915 338.276 391.998 338.888C394.999 360.888 388.999 437.388 391.498 444.888C392.42 447.654 397.499 449.888 400.999 449.888C404.791 449.888 410.962 447.641 411.498 443.888C412.999 433.388 410.999 361.888 412.498 338.888C412.537 338.303 413.584 338.802 413.998 338.388C414.499 337.888 414.973 335.85 413.998 334.388C412.999 332.888 406.688 333.981 401.998 333.888Z" stroke="#E6E7E9"/>
<path d="M443.494 333.533C438.878 333.441 433.113 332.811 431.671 333.533C430.598 334.07 431.134 337.832 431.134 338.369C431.134 339.033 432.656 338.249 432.746 338.907C435.971 362.552 429.523 444.772 432.208 452.833C433.199 455.806 438.658 458.207 442.42 458.207C446.495 458.207 453.127 455.792 453.704 451.758C455.317 440.473 453.168 363.626 454.779 338.907C454.82 338.278 455.945 338.814 456.391 338.369C456.929 337.832 457.438 335.642 456.391 334.07C455.317 332.458 448.534 333.633 443.494 333.533Z" fill="#E6E7E9" stroke="#E6E7E9" stroke-width="1.07477"/>
<path d="M443 372.53L433.698 370.888L432.057 452.964L438.076 456.794L443 457.888L449.566 456.247L453.943 451.869V370.888L443 372.53Z" fill="#A9B6FF" stroke="#A9B6FF" stroke-width="1.09434"/>
<path d="M443.494 333.533C438.878 333.441 433.113 332.811 431.671 333.533C430.598 334.07 431.134 337.832 431.134 338.369C431.134 339.033 432.656 338.249 432.746 338.907C435.971 362.552 429.523 444.772 432.208 452.833C433.199 455.806 438.658 458.207 442.42 458.207C446.495 458.207 453.127 455.792 453.704 451.758C455.317 440.473 453.168 363.626 454.779 338.907C454.82 338.278 455.945 338.814 456.391 338.369C456.929 337.832 457.438 335.642 456.391 334.07C455.317 332.458 448.534 333.633 443.494 333.533Z" stroke="#E6E7E9" stroke-width="1.07477"/>
<path d="M492.299 332.761C487.25 332.518 480.961 331.65 479.361 332.395C478.17 332.95 478.639 337.084 478.623 337.672C478.602 338.398 480.293 337.588 480.37 338.31C483.168 364.287 473.566 454.07 476.256 462.975C477.248 466.26 483.148 469.056 487.265 469.173C491.725 469.299 499.058 466.861 499.814 462.465C501.929 450.164 501.955 365.996 504.484 338.992C504.548 338.306 505.763 338.927 506.265 338.454C506.87 337.882 507.495 335.501 506.398 333.749C505.272 331.951 497.812 333.027 492.299 332.761Z" fill="#E6E7E9" stroke="#E6E7E9" stroke-width="1.17672"/>
<path d="M490.699 376.158L480.713 374.076L476.203 462.615L482.572 466.95L487.852 468.295L494.994 466.742L499.865 462.163L502.566 374.751L490.699 376.158Z" fill="#FFC734" stroke="#FFC734" stroke-width="1.18181"/>
<path d="M492.299 332.761C487.25 332.518 480.961 331.65 479.361 332.395C478.17 332.95 478.639 337.084 478.623 337.672C478.602 338.398 480.293 337.588 480.37 338.31C483.168 364.287 473.566 454.07 476.256 462.975C477.248 466.26 483.148 469.056 487.265 469.173C491.725 469.299 499.058 466.861 499.814 462.465C501.929 450.164 501.955 365.996 504.484 338.992C504.548 338.306 505.763 338.927 506.265 338.454C506.87 337.882 507.495 335.501 506.398 333.749C505.272 331.951 497.812 333.027 492.299 332.761Z" stroke="#E6E7E9" stroke-width="1.17672"/>
<path d="M528.5 476.388L515 487.888L516 492.888L528.5 481.388V476.388Z" fill="#7989E1" stroke="#7989E1"/>
<path d="M365 456.888V452.388L515.5 487.888V493.388L365 456.888Z" fill="#6E7ED9" stroke="#6E7ED9"/>
<path d="M365 451.888L369.5 449.888L386 445.388L528 476.388L515 487.888L365 451.888Z" fill="#7989E1" stroke="#7989E1"/>
<path d="M390.5 366.388L369.5 365.388L370 452.388L390.5 446.388V366.388Z" fill="#5D6DC3" stroke="#5D6DC3"/>
<path d="M518 372.388H514L507 483.388L511 484.388L518 372.388Z" fill="#5D6DC3" stroke="#5D6DC3"/>
<path d="M524.5 372.888L518.5 372.388L511.5 484.888L523 474.388L529 372.888H524.5Z" fill="#687CEB" stroke="#687CEB"/>
<path d="M524.5 366.388L364 357.388V364.388L524.5 372.388V366.388Z" fill="#8091EF" stroke="#8091EF"/>
<path d="M524.5 366.888L536 365.388V371.388L524.5 372.888V366.888Z" fill="#8091EF" stroke="#8091EF"/>
<path d="M371.5 352.888H369V357.388H371.5V352.888Z" fill="#6679E3" stroke="#6679E3"/>
<path d="M518.5 357.888H515L514.5 365.388H518.5V357.888Z" fill="#6679E3" stroke="#6679E3"/>
<path d="M518.5 357.888L530.5 358.388L530 364.388L535 364.888L524 366.388L518.5 365.388V357.888Z" fill="#7989E1" stroke="#7989E1"/>
<path d="M372 352.888L390.5 353.888V358.388L372 357.388V352.888Z" fill="#7989E1" stroke="#7989E1"/>
<circle cx="381" cy="316" r="6" fill="#7989E1"/>
<circle cx="412" cy="290" r="6" fill="#7989E1"/>
<circle cx="448" cy="276" r="6" fill="#FFC734"/>
<circle cx="451" cy="304" r="6" fill="#A9B6FF"/>
<circle cx="495" cy="319" r="6" fill="#FFC734"/>
<path d="M192.5 23.4999C193.666 27.6205 200 31.4999 200 31.4999L219.5 8.99994C219.5 8.99994 214.384 3.16893 210 2.99994C206.915 2.88105 205.5 2.49989 202.5 5.49994C199.5 8.5 193.5 14 192.5 16.9999C191.505 19.9844 191.805 21.0465 192.489 23.4622L192.5 23.4999Z" fill="#FFC734" stroke="#FFC734"/>
<path d="M216 6L196.5 28.5L200 31L219.5 9L216 6Z" fill="#DDAC29" stroke="#DDAC29"/>
<path d="M192.5 23.4999C193.666 27.6205 200 31.4999 200 31.4999L219.5 8.99994C219.5 8.99994 214.384 3.16893 210 2.99994C206.915 2.88105 205.5 2.49989 202.5 5.49994C199.5 8.5 193.5 14 192.5 16.9999C191.505 19.9844 191.805 21.0465 192.489 23.4622L192.5 23.4999Z" stroke="#FFC734"/>
<path d="M367.5 154.5L356.5 152.5L357 148L367.5 154.5Z" fill="#6C7BCD" stroke="#6C7BCD"/>
<path d="M359 144.5L357.5 147.5L368 154.5L359 144.5Z" fill="#596BCC" stroke="#596BCC"/>
<path d="M360 144.5L363.5 144L368 154L360 144.5Z" fill="#4B5BB3" stroke="#4B5BB3"/>
<path d="M229 13.5L205.5 40L207 41.5L230 15L229 13.5Z" fill="#CDCED0" stroke="#CDCED0"/>
<path d="M227 12L204 38L205.5 39.5L228.5 13.5L227 12Z" fill="#B7B8BC" stroke="#B7B8BC"/>
<path d="M235 18.5L211.5 45L213 46.5L236 20L235 18.5Z" fill="#CDCED0" stroke="#CDCED0"/>
<path d="M233 17L210 43L211.5 44.5L234.5 18.5L233 17Z" fill="#B7B8BC" stroke="#B7B8BC"/>
<path d="M356 152L335 147L332.5 140.5L338 137L356.5 148L356 152Z" fill="#FAE3EB" stroke="#FAE3EB"/>
<path d="M363.5 143.5L355 122.5L347.5 122L348 130L359 144.5L363.5 143.5Z" fill="#F7C7D7" stroke="#F7C7D7"/>
<path d="M356.579 148.304L339.05 135.704L339.206 128.741L345.623 127.592L358.56 144.793L356.579 148.304Z" fill="#F9D5E1" stroke="#F9D5E1"/>
<path d="M220.5 7L198.5 33.5L201 36L223.5 9.5L220.5 7Z" fill="#CECFD1" stroke="#CECFD1"/>
<path d="M228.5 43L221.5 50.5L335.5 147C335.5 147 332.909 142.257 334.5 140C336.202 137.585 342 139 342 139L228.5 43Z" fill="#7989E1" stroke="#7989E1"/>
<path d="M235 34.5L229 42.5L343 139C343 139 340.409 134.257 342 132C343.702 129.585 349.5 131 349.5 131L235 34.5Z" fill="#5B6BC3" stroke="#5B6BC3"/>
<path d="M242 27L235 34.5L349 131C349 131 346.409 126.257 348 124C349.702 121.585 355.5 123 355.5 123L242 27Z" fill="#455192" stroke="#455192"/>
<path d="M241 24.5L217.5 51L219 52.5L242 26L241 24.5Z" fill="#CDCED0" stroke="#CDCED0"/>
<path d="M239 23L216 49L217.5 50.5L240.5 24.5L239 23Z" fill="#B7B8BC" stroke="#B7B8BC"/>
<path d="M225.5 7.5L199.5 37.5L202 40L228 10L225.5 7.5Z" fill="#E2E2E2" stroke="#E2E2E2"/>
<path d="M232 13L206 43L208.5 45.5L234.5 15.5L232 13Z" fill="#E2E2E2" stroke="#E2E2E2"/>
<path d="M237 19L211 49L213.5 51.5L239.5 21.5L237 19Z" fill="#E2E2E2" stroke="#E2E2E2"/>
<defs>
<filter id="filter0_d_6_526" x="111.251" y="83.2468" width="334.869" height="351.965" filterUnits="userSpaceOnUse" color-interpolation-filters="sRGB">
<feFlood flood-opacity="0" result="BackgroundImageFix"/>
<feColorMatrix in="SourceAlpha" type="matrix" values="0 0 0 0 0 0 0 0 0 0 0 0 0 0 0 0 0 0 127 0" result="hardAlpha"/>
<feOffset dy="4"/>
<feGaussianBlur stdDeviation="2"/>
<feComposite in2="hardAlpha" operator="out"/>
<feColorMatrix type="matrix" values="0 0 0 0 0 0 0 0 0 0 0 0 0 0 0 0 0 0 0.2 0"/>
<feBlend mode="normal" in2="BackgroundImageFix" result="effect1_dropShadow_6_526"/>
<feBlend mode="normal" in="SourceGraphic" in2="effect1_dropShadow_6_526" result="shape"/>
</filter>
</defs>
</svg>
