<svg width="53" height="52" viewBox="0 0 53 52" fill="none" xmlns="http://www.w3.org/2000/svg">
<circle cx="26.1333" cy="26" r="22" stroke="#F19C40" stroke-width="8"/>
<circle cx="25.9599" cy="25.827" r="23.4" fill="#FFC734"/>
<circle cx="26.1333" cy="26" r="18.72" fill="white"/>
<ellipse cx="13.5892" cy="14.6357" rx="6.23433" ry="4.08016" transform="rotate(-47.628 13.5892 14.6357)" fill="#FFC734"/>
<ellipse cx="20.5868" cy="24.4398" rx="3.46667" ry="4.33333" fill="black"/>
<ellipse cx="18.7926" cy="22.0133" rx="1.3005" ry="1.88471" transform="rotate(24.3602 18.7926 22.0133)" fill="white"/>
<ellipse cx="32.0267" cy="24.4398" rx="3.46667" ry="4.33333" fill="black"/>
<ellipse cx="30.267" cy="22.5664" rx="1.56" ry="2.37431" transform="rotate(24.3602 30.267 22.5664)" fill="white"/>
<path d="M22.1467 32.7599L20.9333 33.4533L22.1467 33.2799C22.1467 33.2799 22.2636 34.4154 22.4933 35.1026C22.6947 35.7048 22.8546 36.0321 23.1867 36.5733C23.7631 37.5124 24.1242 38.1289 25.0933 38.6533C25.8298 39.0517 26.3362 39.1911 27.1733 39.1733C27.945 39.1568 28.3799 38.9781 29.08 38.6533C30.2122 38.1279 30.7228 37.5446 31.5067 36.5733C32.7461 35.0375 33.4133 31.8933 33.4133 31.8933L34.4533 32.0666L33.5867 31.5466L32.8933 30.5066L33.0667 31.7199C33.0667 31.7199 32.343 32.1723 31.8533 32.4133C30.9504 32.8575 30.4133 33.0818 29.4267 33.2799C28.6936 33.4271 28.2673 33.4294 27.52 33.4533C26.3679 33.49 25.7101 33.4712 24.5733 33.2799C23.7477 33.141 22.4933 32.7599 22.4933 32.7599L22.6667 31.7199L22.1467 32.7599Z" fill="black"/>
<path d="M25.0933 34.8673C24.233 35.0521 23.0133 35.3873 23.0133 35.7339C23.0133 36.0806 23.5765 36.7383 24.0533 37.2939C24.5841 37.9125 24.8674 38.3519 25.6133 38.6806C26.4209 39.0365 27.0133 39.0794 27.8666 38.8539C28.9811 38.5595 30.0626 38.0986 30.12 36.9472C30.1821 35.7006 28.8796 35.2555 27.6933 34.8673C26.7283 34.5514 26.086 34.6539 25.0933 34.8673Z" fill="#FFC734" stroke="black"/>
</svg>
